<?xml version="1.0" encoding="utf-8"?>
<!-- Generator: Adobe Illustrator 28.1.0, SVG Export Plug-In . SVG Version: 6.00 Build 0)  -->
<svg version="1.1" id="Layer_1" xmlns="http://www.w3.org/2000/svg" xmlns:xlink="http://www.w3.org/1999/xlink" x="0px" y="0px"
	 viewBox="0 0 32 32" style="enable-background:new 0 0 32 32;" xml:space="preserve">
<style type="text/css">
	.st0{fill:#0095D9;}
	.st1{fill:#0050A3;}
	.st2{fill:#36AEFF;}
</style>
<path class="st0" d="M27.35,16.08c-0.47,0.8-1.27,1.37-2.27,1.37c-1.41,0-2.55-1.14-2.55-2.55c0-2.79,3.3-2.9,2.46-5.88
	C26.32,9.8,28.67,13.82,27.35,16.08z"/>
<path class="st1" d="M20.46,18.32c-1.7-2.29-2.12-5.98,0.47-8.58c3.59-3.59,0.54-11.26-8.4-9.47c2.51,0.59,3.47,2,3.47,3.16
	c0,2.13-3.47,1.24-4.73,4.5c-1.67,4.29,3.68,5.66,0.27,10.39c-1.83,2.55-5.42,3.09-7.97,1.25c0,1.21,0.17,2.39,0.5,3.49
	C5.58,28.22,10.36,32,16.01,32s10.43-3.78,11.94-8.94c0.32-1.1,0.5-2.28,0.5-3.49C25.88,21.41,22.36,20.87,20.46,18.32z
	 M16.34,28.65c-1.15,0-2.12-0.66-2.64-1.61c-2.24-4.08,1.19-7.29,2.73-8.2c-0.31,1.31,0.04,2.64,1.31,3.9
	c0.42,0.42,0.77,0.86,1.07,1.32c0,0,0.01,0.01,0.01,0.02c0.02,0.04,0.05,0.09,0.07,0.12l0,0l0,0c0.25,0.43,0.39,0.93,0.39,1.47
	C19.31,27.33,17.98,28.65,16.34,28.65z"/>
<path class="st0" d="M9.46,14.9c0,1.41-1.14,2.55-2.55,2.55c-1.24,0-2.22-0.89-2.5-2.05C4,13.69,4.87,11.26,8.03,10.33
	C7.47,12.63,9.46,12.98,9.46,14.9z"/>
<path class="st2" d="M16.34,28.65c1.64,0,2.97-1.32,2.97-2.97c0-0.54-0.15-1.04-0.39-1.47l0,0l0,0c-0.02-0.04-0.05-0.09-0.07-0.12
	c0-0.01-0.01-0.01-0.01-0.02c-0.29-0.47-0.65-0.91-1.07-1.32c-1.29-1.26-1.63-2.6-1.31-3.9c-1.54,0.91-4.98,4.13-2.73,8.2
	C14.23,27.99,15.2,28.65,16.34,28.65z"/>
</svg>
