<?xml version="1.0" encoding="utf-8"?>
<!-- Generator: Adobe Illustrator 28.1.0, SVG Export Plug-In . SVG Version: 6.00 Build 0)  -->
<svg version="1.1" xmlns="http://www.w3.org/2000/svg" xmlns:xlink="http://www.w3.org/1999/xlink" x="0px" y="0px"
	 viewBox="0 0 500 76.8" style="enable-background:new 0 0 500 76.8;" xml:space="preserve">
<style type="text/css">
	.st0{fill:#155E98;}
	.st1{fill:#3ABFEF;}
</style>
<g id="Layer_2">
</g>
<g id="Layer_1">
	<g>
		<g>
			<polygon class="st0" points="104.89,21.81 75.83,21.81 71.99,30.11 83.88,30.11 83.88,65.4 92.98,61.43 92.98,30.11 
				101.05,30.11 			"/>
			<polygon class="st0" points="339.96,21.81 310.9,21.81 307.06,30.11 318.95,30.11 318.95,65.4 328.06,61.43 328.06,30.11 
				336.12,30.11 			"/>
			<polygon class="st0" points="500,21.81 470.94,21.81 467.1,30.11 478.98,30.11 478.98,65.4 488.09,61.43 488.09,30.11 
				496.16,30.11 			"/>
			<polygon class="st0" points="132.14,25.78 132.14,39.26 118.83,39.26 118.83,21.81 109.72,25.78 109.72,65.4 118.83,61.43 
				118.83,47.56 132.14,47.56 132.14,65.4 141.24,61.43 141.24,21.81 			"/>
			<polygon class="st0" points="292.53,25.78 292.53,39.26 279.22,39.26 279.22,21.81 270.12,25.78 270.12,65.4 279.22,61.43 
				279.22,47.56 292.53,47.56 292.53,65.4 301.64,61.43 301.64,21.81 			"/>
			<path class="st0" d="M212.88,25.78v24.95h0c-0.01,3.54-3.26,6.41-7.28,6.41c-4.01,0-7.27-2.87-7.28-6.41V21.81l-9.11,3.97v24.95
				c0,8.02,7.34,14.51,16.38,14.51c9.05,0,16.38-6.5,16.38-14.51V21.81L212.88,25.78z"/>
			<path class="st0" d="M391.91,25.78v24.95h0c-0.01,3.54-3.26,6.41-7.28,6.41c-4.01,0-7.27-2.87-7.28-6.41V21.81l-9.11,3.97v24.95
				h0c-0.01,3.54-3.26,6.41-7.28,6.41c-4.01,0-7.27-2.87-7.28-6.41V21.81l-9.11,3.97v24.95c0,8.02,7.34,14.51,16.39,14.51
				c4.65,0,8.85-1.72,11.83-4.48c2.98,2.76,7.18,4.48,11.83,4.48c9.05,0,16.38-6.5,16.38-14.51V21.81L391.91,25.78z"/>
			<path class="st0" d="M182.24,36.09c0-8.02-7.34-14.51-16.38-14.51c-9.05,0-16.38,6.5-16.38,14.51v14.64
				c0,8.02,7.34,14.51,16.38,14.51c9.05,0,16.38-6.5,16.38-14.51V36.09z M173.13,50.73c-0.01,3.54-3.26,6.41-7.28,6.41
				c-4.01,0-7.27-2.87-7.28-6.41V36.09c0.01-3.54,3.26-6.41,7.28-6.41c4.01,0,7.27,2.87,7.28,6.41h0L173.13,50.73L173.13,50.73z"/>
			<polygon class="st0" points="450.49,39.23 466.46,39.23 462.63,47.54 450.49,47.54 450.49,64.8 441.39,64.8 441.39,21.81 
				466.95,21.81 463.1,30.11 450.49,30.11 			"/>
			<path class="st0" d="M253.33,39.26h-6.88l-3.84,8.3h10.72v3.17h0c-0.01,3.54-3.26,6.41-7.28,6.41c-4.01,0-7.27-2.87-7.28-6.41
				V36.09c0.01-3.54,3.26-6.41,7.28-6.41c4.01,0,7.27,2.87,7.28,6.41h0v0.18l8.8-2.99c-1.48-6.67-8.11-11.7-16.07-11.7
				c-9.05,0-16.38,6.5-16.38,14.51v14.64c0,8.02,7.34,14.51,16.38,14.51c9.05,0,16.38-6.5,16.38-14.51V39.26H253.33z"/>
			<polygon class="st0" points="436.57,56.5 432.73,64.8 409.84,64.8 409.84,21.81 435.39,21.81 431.55,30.11 418.94,30.11 
				418.94,39.23 434.92,39.23 431.07,47.54 418.94,47.54 418.94,56.5 			"/>
		</g>
		<g>
			<path class="st1" d="M57.08,38.56c-1.12,1.91-3.07,3.31-5.44,3.31c-3.38,0-6.12-2.74-6.12-6.12c0-6.71,7.9-6.96,5.91-14.12
				C54.61,23.51,60.25,33.16,57.08,38.56z"/>
			<path class="st0" d="M40.55,43.96c-4.09-5.49-5.1-14.37,1.12-20.59c8.63-8.63,1.28-27.02-20.15-22.73
				c6.02,1.4,8.32,4.78,8.32,7.58c0,5.11-8.32,2.97-11.36,10.8c-4.01,10.3,8.83,13.58,0.65,24.94c-4.4,6.11-12.99,7.4-19.13,3.01
				c0,2.91,0.42,5.73,1.2,8.39C4.82,67.75,16.27,76.8,29.84,76.8s25.02-9.05,28.64-21.45c0.78-2.66,1.2-5.48,1.2-8.39
				C53.54,51.36,45.11,50.07,40.55,43.96z M30.68,68.75c-2.75,0-5.08-1.59-6.32-3.85c-5.39-9.79,2.86-17.5,6.56-19.69
				c-0.75,3.13,0.08,6.33,3.16,9.36c1.01,1,1.86,2.06,2.56,3.17c0.01,0.01,0.02,0.03,0.03,0.04c0.06,0.1,0.12,0.2,0.19,0.3
				c0,0,0,0.01,0.01,0.01c0,0,0,0,0,0c0.59,1.04,0.93,2.24,0.93,3.53C37.79,65.57,34.61,68.75,30.68,68.75z"/>
			<path class="st1" d="M14.16,35.75c0,3.38-2.74,6.12-6.12,6.12c-2.97,0-5.33-2.13-6-4.91C1.05,32.83,3.12,27,10.72,24.77
				C9.38,30.31,14.16,31.13,14.16,35.75z"/>
			<path class="st1" d="M30.68,68.75c3.93,0,7.12-3.19,7.12-7.12c0-1.28-0.34-2.49-0.93-3.53c0,0,0,0,0,0c0,0-0.01-0.01-0.01-0.01
				c-0.06-0.1-0.12-0.2-0.19-0.3c-0.01-0.02-0.02-0.03-0.03-0.04c-0.7-1.1-1.55-2.17-2.56-3.17c-3.08-3.04-3.91-6.23-3.16-9.36
				c-3.7,2.19-11.95,9.9-6.56,19.69C25.6,67.16,27.92,68.75,30.68,68.75z"/>
		</g>
	</g>
</g>
</svg>
